HIERARCHY
ROOT Hip
{
	OFFSET	0.0000	0.0000	0.0000
	CHANNELS 6 Xposition Yposition Zposition Xrotation Yrotation Zrotation
	JOINT LowerSpine
	{
		OFFSET	0.0000	9.3884	-5.0805
		CHANNELS 3 Xrotation Yrotation Zrotation
		JOINT MiddleSpine
		{
			OFFSET	0.0000	8.5677	0.4475
			CHANNELS 3 Xrotation Yrotation Zrotation
			JOINT Chest
			{
				OFFSET	0.0000	10.6015	-2.3598
				CHANNELS 3 Xrotation Yrotation Zrotation
				JOINT Neck
				{
					OFFSET	0.0000	23.8901	-0.4968
					CHANNELS 3 Xrotation Yrotation Zrotation
					JOINT Head
					{
						OFFSET	0.0000	13.4910	3.6695
						CHANNELS 3 Xrotation Yrotation Zrotation
						End Site
						{
							OFFSET	0.0001	18.8505	0.5627
						}
					}
				}
				JOINT LClavicle
				{
					OFFSET	2.4119	23.0551	7.8988
					CHANNELS 3 Xrotation Yrotation Zrotation
					JOINT LShoulder
					{
						OFFSET	14.0907	3.3070	-5.3509
						CHANNELS 3 Xrotation Yrotation Zrotation
						JOINT LForearm
						{
							OFFSET	29.9314	-0.1063	-0.2594
							CHANNELS 3 Xrotation Yrotation Zrotation
							JOINT LHand
							{
								OFFSET	24.9691	0.0724	-0.1495
								CHANNELS 3 Xrotation Yrotation Zrotation
								JOINT LFinger1
								{
									OFFSET	9.6773	0.8463	2.6878
									CHANNELS 3 Xrotation Yrotation Zrotation
									JOINT LFinger11
									{
										OFFSET	3.6198	-0.8827	0.6378
										CHANNELS 3 Xrotation Yrotation Zrotation
										JOINT LFinger12
										{
											OFFSET	2.4711	-0.6028	0.4356
											CHANNELS 3 Xrotation Yrotation Zrotation
											End Site
											{
												OFFSET	1.7585	-0.5249	0.2852
											}
										}
									}
								}
								JOINT LFinger2
								{
									OFFSET	9.8217	0.9774	0.2340
									CHANNELS 3 Xrotation Yrotation Zrotation
									JOINT LFinger21
									{
										OFFSET	4.4757	0.0125	-0.0264
										CHANNELS 3 Xrotation Yrotation Zrotation
										JOINT LFinger22
										{
											OFFSET	2.4808	0.0075	-0.0151
											CHANNELS 3 Xrotation Yrotation Zrotation
											End Site
											{
												OFFSET	2.2283	-0.1573	0.0030
											}
										}
									}
								}
								JOINT LFinger3
								{
									OFFSET	9.3081	0.6521	-2.2021
									CHANNELS 3 Xrotation Yrotation Zrotation
									JOINT LFinger31
									{
										OFFSET	4.0612	-0.2056	-0.2543
										CHANNELS 3 Xrotation Yrotation Zrotation
										JOINT LFinger32
										{
											OFFSET	2.3142	-0.1164	-0.1454
											CHANNELS 3 Xrotation Yrotation Zrotation
											End Site
											{
												OFFSET	2.0462	-0.2516	-0.0967
											}
										}
									}
								}
								JOINT LFinger4
								{
									OFFSET	8.6376	-0.6565	-3.8031
									CHANNELS 3 Xrotation Yrotation Zrotation
									JOINT LFinger41
									{
										OFFSET	2.4980	-0.5209	-0.6896
										CHANNELS 3 Xrotation Yrotation Zrotation
										JOINT LFinger42
										{
											OFFSET	1.8318	-0.3815	-0.5060
											CHANNELS 3 Xrotation Yrotation Zrotation
											End Site
											{
												OFFSET	1.6259	-0.4467	-0.3730
											}
										}
									}
								}
								JOINT LFinger0
								{
									OFFSET	2.0018	-1.5152	1.5176
									CHANNELS 3 Xrotation Yrotation Zrotation
									JOINT LFinger01
									{
										OFFSET	3.7272	-1.2242	2.8101
										CHANNELS 3 Xrotation Yrotation Zrotation
										JOINT LFinger02
										{
											OFFSET	2.4543	-0.8782	1.7683
											CHANNELS 3 Xrotation Yrotation Zrotation
											End Site
											{
												OFFSET	1.8048	-0.6213	1.2358
											}
										}
									}
								}
							}
						}
					}
				}
				JOINT RClavicle
				{
					OFFSET	-2.4119	23.0551	7.8988
					CHANNELS 3 Xrotation Yrotation Zrotation
					JOINT RShoulder
					{
						OFFSET	-14.0932	3.3075	-5.3518
						CHANNELS 3 Xrotation Yrotation Zrotation
						JOINT RForearm
						{
							OFFSET	-29.9314	-0.1063	-0.2594
							CHANNELS 3 Xrotation Yrotation Zrotation
							JOINT RHand
							{
								OFFSET	-24.9691	0.0725	-0.1495
								CHANNELS 3 Xrotation Yrotation Zrotation
								JOINT RFinger1
								{
									OFFSET	-9.6773	0.8463	2.6878
									CHANNELS 3 Xrotation Yrotation Zrotation
									JOINT RFinger11
									{
										OFFSET	-3.6198	-0.8827	0.6378
										CHANNELS 3 Xrotation Yrotation Zrotation
										JOINT RFinger12
										{
											OFFSET	-2.4711	-0.6028	0.4356
											CHANNELS 3 Xrotation Yrotation Zrotation
											End Site
											{
												OFFSET	-1.7585	-0.5249	0.2852
											}
										}
									}
								}
								JOINT RFinger2
								{
									OFFSET	-9.8217	0.9774	0.2340
									CHANNELS 3 Xrotation Yrotation Zrotation
									JOINT RFinger21
									{
										OFFSET	-4.4757	0.0125	-0.0264
										CHANNELS 3 Xrotation Yrotation Zrotation
										JOINT RFinger22
										{
											OFFSET	-2.4808	0.0075	-0.0151
											CHANNELS 3 Xrotation Yrotation Zrotation
											End Site
											{
												OFFSET	-2.2283	-0.1573	0.0030
											}
										}
									}
								}
								JOINT RFinger3
								{
									OFFSET	-9.3081	0.6521	-2.2021
									CHANNELS 3 Xrotation Yrotation Zrotation
									JOINT RFinger31
									{
										OFFSET	-4.0612	-0.2056	-0.2543
										CHANNELS 3 Xrotation Yrotation Zrotation
										JOINT RFinger32
										{
											OFFSET	-2.3142	-0.1164	-0.1454
											CHANNELS 3 Xrotation Yrotation Zrotation
											End Site
											{
												OFFSET	-2.0462	-0.2516	-0.0967
											}
										}
									}
								}
								JOINT RFinger4
								{
									OFFSET	-8.6376	-0.6564	-3.8031
									CHANNELS 3 Xrotation Yrotation Zrotation
									JOINT RFinger41
									{
										OFFSET	-2.4980	-0.5209	-0.6896
										CHANNELS 3 Xrotation Yrotation Zrotation
										JOINT RFinger42
										{
											OFFSET	-1.8318	-0.3815	-0.5060
											CHANNELS 3 Xrotation Yrotation Zrotation
											End Site
											{
												OFFSET	-1.6259	-0.4467	-0.3730
											}
										}
									}
								}
								JOINT RFinger0
								{
									OFFSET	-2.0018	-1.5152	1.5176
									CHANNELS 3 Xrotation Yrotation Zrotation
									JOINT RFinger01
									{
										OFFSET	-3.7272	-1.2242	2.8101
										CHANNELS 3 Xrotation Yrotation Zrotation
										JOINT RFinger02
										{
											OFFSET	-2.4543	-0.8782	1.7683
											CHANNELS 3 Xrotation Yrotation Zrotation
											End Site
											{
												OFFSET	-1.8048	-0.6213	1.2358
											}
										}
									}
								}
							}
						}
					}
				}
			}
		}
	}
	JOINT RThigh
	{
		OFFSET	-10.0433	4.2439	-0.8279
		CHANNELS 3 Xrotation Yrotation Zrotation
		JOINT RShin
		{
			OFFSET	-0.8036	-43.6839	0.0000
			CHANNELS 3 Xrotation Yrotation Zrotation
			JOINT RFoot
			{
				OFFSET	0.0000	-42.8949	0.0000
				CHANNELS 3 Xrotation Yrotation Zrotation
				JOINT RToe
				{
					OFFSET	0.0000	-4.7145	9.8587
					CHANNELS 3 Xrotation Yrotation Zrotation
					End Site
					{
						OFFSET	0.0000	0.0000	6.6138
					}
				}
			}
		}
	}
	JOINT LThigh
	{
		OFFSET	10.0432	4.2442	-0.8279
		CHANNELS 3 Xrotation Yrotation Zrotation
		JOINT LShin
		{
			OFFSET	0.8037	-43.6842	0.0000
			CHANNELS 3 Xrotation Yrotation Zrotation
			JOINT LFoot
			{
				OFFSET	0.0000	-42.8949	0.0000
				CHANNELS 3 Xrotation Yrotation Zrotation
				JOINT LToe
				{
					OFFSET	0.0000	-4.7146	9.8587
					CHANNELS 3 Xrotation Yrotation Zrotation
					End Site
					{
						OFFSET	0.0000	0.0000	6.6138
					}
				}
			}
		}
	}
}
MOTION
Frames:	4
Frame Time: 0.0333333000
	-7.9923	44.8026	214.1060	-7.511835	6.266673	-1.710899	0.000000	0.000000	0.000000	0.731298	-0.056854	0.514319	1.911459	-0.282210	1.739765	0.000000	0.000000	0.000000	0.000000	0.000000	0.000000	0.000000	0.000000	-11.723060	-1.421543	-46.123180	-54.139730	-1.935123	-13.152540	2.225226	0.000000	0.000000	0.000000	0.000000	0.000000	0.000000	0.000000	0.000000	0.000000	0.000000	0.000000	0.000000	0.000000	0.000000	0.000000	0.000000	0.000000	0.000000	0.000000	0.000000	0.000000	0.000000	0.000000	0.000000	0.000000	0.000000	0.000000	0.000000	0.000000	0.000000	0.000000	0.000000	0.000000	0.000000	0.000000	0.000000	0.000000	0.000000	0.000000	0.000000	0.000000	0.000000	0.000000	0.000000	0.000000	0.000000	0.000000	0.000000	0.000000	0.000000	11.811190	-6.909964	23.079940	55.165230	-2.167960	18.399720	-0.374358	0.000000	0.000000	0.000000	0.000000	0.000000	0.000000	0.000000	0.000000	0.000000	0.000000	0.000000	0.000000	0.000000	0.000000	0.000000	0.000000	0.000000	0.000000	0.000000	0.000000	0.000000	0.000000	0.000000	0.000000	0.000000	0.000000	0.000000	0.000000	0.000000	0.000000	0.000000	0.000000	0.000000	0.000000	0.000000	0.000000	0.000000	0.000000	0.000000	0.000000	0.000000	0.000000	0.000000	0.000000	0.000000	0.000000	0.000000	0.000000	-87.602580	-0.701953	-1.938401	94.907950	-0.661338	5.705386	0.241260	0.000921	0.000416	0.000000	0.000000	0.000000	-87.523120	5.174837	-6.056077	96.233830	0.895580	-2.560430	-0.369820	-0.129909	-0.062617	0.000000	0.000000	0.000000
	-8.0931	44.7657	220.1058	-7.406348	6.323910	-1.811508	0.000000	0.000000	0.000000	0.693233	-0.055263	0.503031	1.787602	-0.291730	1.713516	0.000000	0.000000	0.000000	0.000000	0.000000	0.000000	0.000000	0.000000	-11.734980	-1.385041	-45.230820	-54.435730	-2.963523	-14.940280	2.994818	0.000000	0.000000	0.000000	0.000000	0.000000	0.000000	0.000000	0.000000	0.000000	0.000000	0.000000	0.000000	0.000000	0.000000	0.000000	0.000000	0.000000	0.000000	0.000000	0.000000	0.000000	0.000000	0.000000	0.000000	0.000000	0.000000	0.000000	0.000000	0.000000	0.000000	0.000000	0.000000	0.000000	0.000000	0.000000	0.000000	0.000000	0.000000	0.000000	0.000000	0.000000	0.000000	0.000000	0.000000	0.000000	0.000000	0.000000	0.000000	0.000000	0.000000	11.816580	-9.514931	16.369900	55.766670	-1.744120	21.068980	1.773658	0.000000	0.000000	0.000000	0.000000	0.000000	0.000000	0.000000	0.000000	0.000000	0.000000	0.000000	0.000000	0.000000	0.000000	0.000000	0.000000	0.000000	0.000000	0.000000	0.000000	0.000000	0.000000	0.000000	0.000000	0.000000	0.000000	0.000000	0.000000	0.000000	0.000000	0.000000	0.000000	0.000000	0.000000	0.000000	0.000000	0.000000	0.000000	0.000000	0.000000	0.000000	0.000000	0.000000	0.000000	0.000000	0.000000	0.000000	0.000000	-87.725610	-0.841367	-1.744755	95.118840	-0.647223	5.669811	0.315134	-0.145772	-0.069216	0.000000	0.000000	0.000000	-87.824230	4.932158	-5.679471	96.310540	0.883041	-2.660514	-0.653237	-0.096912	-0.047058	0.000000	0.000000	0.000000
	-8.3096	44.7034	226.1770	-7.345355	6.349750	-2.008717	0.000000	0.000000	0.000000	0.677846	-0.053341	0.497567	1.792159	-0.261813	1.677200	0.000000	0.000000	0.000000	0.000000	0.000000	0.000000	0.000000	0.000000	-11.763950	-1.209749	-41.119260	-54.862430	-4.632469	-19.596160	2.726127	0.000000	0.000000	0.000000	0.000000	0.000000	0.000000	0.000000	0.000000	0.000000	0.000000	0.000000	0.000000	0.000000	0.000000	0.000000	0.000000	0.000000	0.000000	0.000000	0.000000	0.000000	0.000000	0.000000	0.000000	0.000000	0.000000	0.000000	0.000000	0.000000	0.000000	0.000000	0.000000	0.000000	0.000000	0.000000	0.000000	0.000000	0.000000	0.000000	0.000000	0.000000	0.000000	0.000000	0.000000	0.000000	0.000000	0.000000	0.000000	0.000000	0.000000	11.813710	-8.822554	12.450260	55.248730	-1.963749	23.948770	3.705943	0.000000	0.000000	0.000000	0.000000	0.000000	0.000000	0.000000	0.000000	0.000000	0.000000	0.000000	0.000000	0.000000	0.000000	0.000000	0.000000	0.000000	0.000000	0.000000	0.000000	0.000000	0.000000	0.000000	0.000000	0.000000	0.000000	0.000000	0.000000	0.000000	0.000000	0.000000	0.000000	0.000000	0.000000	0.000000	0.000000	0.000000	0.000000	0.000000	0.000000	0.000000	0.000000	0.000000	0.000000	0.000000	0.000000	0.000000	0.000000	-87.744870	-1.137742	-1.507724	95.119380	-0.641038	5.739075	0.314351	-0.202659	-0.096236	0.000000	0.000000	0.000000	-88.121300	4.573227	-5.288735	96.126210	0.888429	-2.658261	-0.814313	-0.041675	-0.020311	0.000000	0.000000	0.000000
	-8.5825	44.6554	232.2935	-7.323459	6.259047	-2.266383	0.000000	0.000000	0.000000	0.661722	-0.050757	0.491490	1.885356	-0.207361	1.638331	0.000000	0.000000	0.000000	0.000000	0.000000	0.000000	0.000000	0.000000	-11.770730	-0.856537	-35.144820	-55.361230	-6.520449	-25.012500	1.436374	0.000000	0.000000	0.000000	0.000000	0.000000	0.000000	0.000000	0.000000	0.000000	0.000000	0.000000	0.000000	0.000000	0.000000	0.000000	0.000000	0.000000	0.000000	0.000000	0.000000	0.000000	0.000000	0.000000	0.000000	0.000000	0.000000	0.000000	0.000000	0.000000	0.000000	0.000000	0.000000	0.000000	0.000000	0.000000	0.000000	0.000000	0.000000	0.000000	0.000000	0.000000	0.000000	0.000000	0.000000	0.000000	0.000000	0.000000	0.000000	0.000000	0.000000	11.804060	-6.962180	9.152719	54.558020	-2.592385	26.124530	6.162496	0.000000	0.000000	0.000000	0.000000	0.000000	0.000000	0.000000	0.000000	0.000000	0.000000	0.000000	0.000000	0.000000	0.000000	0.000000	0.000000	0.000000	0.000000	0.000000	0.000000	0.000000	0.000000	0.000000	0.000000	0.000000	0.000000	0.000000	0.000000	0.000000	0.000000	0.000000	0.000000	0.000000	0.000000	0.000000	0.000000	0.000000	0.000000	0.000000	0.000000	0.000000	0.000000	0.000000	0.000000	0.000000	0.000000	0.000000	0.000000	-87.666450	-1.572130	-1.128143	94.886250	-0.654734	5.801400	0.241405	-0.092409	-0.043989	0.000000	0.000000	0.000000	-88.289860	4.132797	-4.746341	95.633380	0.895641	-2.725971	-0.782945	-0.015737	-0.007687	0.000000	0.000000	0.000000
